<svg width="714" height="677" xmlns="http://www.w3.org/2000/svg" xmlns:xlink="http://www.w3.org/1999/xlink" xml:space="preserve" overflow="hidden"><g transform="translate(-2921 -553)"><g><g><g><path d="M483.695 200.914C481.093 110.074 405.704 38.3402 314.845 40.2511 242.5 39.5071 177.558 84.4888 152.818 152.477 75.4804 163.143 17.6783 228.933 17.0556 307 20.2059 394.318 93.1035 462.802 180.448 460.5 185.218 460.834 190.005 460.834 194.774 460.5L235.708 460.5C233.221 454.438 231.946 447.95 231.956 441.398L231.956 441.398C232.079 432.652 234.427 424.083 238.778 416.497L191.022 416.497 180.448 416.497C117.337 418.639 64.0439 370.041 60.3767 307 60.9463 250.24 103.33 202.613 159.64 195.457L185.564 191.363 194.092 166.462C212.81 116.112 261.132 82.9418 314.845 83.5722 381.772 82.0273 437.605 134.37 440.374 201.256L440.374 238.778 477.555 243.894C520.638 249.408 553.32 285.418 554.647 328.831 552.996 377.044 513.515 415.32 465.276 415.473L460.159 415.473 457.43 415.473 423.319 415.473C411.165 352.252 355.687 306.664 291.309 307 279.346 305.496 268.429 313.974 266.925 325.937 265.421 337.9 273.899 348.817 285.862 350.321 287.67 350.55 289.5 350.55 291.309 350.321 341.138 353.388 379.049 396.265 375.983 446.095 373.179 491.647 336.861 527.965 291.309 530.769 279.346 529.265 268.429 537.745 266.925 549.707 265.421 561.67 273.899 572.586 285.862 574.09 287.67 574.318 289.5 574.318 291.309 574.09 357.43 573.974 413.536 525.55 423.319 460.159L459.135 460.159C461.397 460.517 463.696 460.517 465.958 460.159 537.895 458.88 595.853 400.771 596.944 328.831 595.737 264.165 547.739 209.951 483.695 200.914Z" fill="#FFFFFF" transform="matrix(1.00163 0 0 1 2921 616)"/><path d="M285.851 387.161C314.863 387.161 338.382 410.68 338.382 439.692L338.382 441.057C338.382 470.069 314.863 493.588 285.851 493.588L284.487 493.588C255.475 493.588 231.956 470.069 231.956 441.057L231.956 439.692C231.956 410.68 255.475 387.161 284.487 387.161Z" fill="#FFFFFF" transform="matrix(1.00163 0 0 1 2921 616)"/></g></g></g><g><g><g><path d="M3604.28 795.972 3584.99 789.708C3579.13 787.76 3573.8 784.472 3569.43 780.106 3565.06 775.74 3561.77 770.415 3559.82 764.555L3553.55 745.28C3553.03 743.795 3552.05 742.508 3550.77 741.599 3549.48 740.689 3547.94 740.2 3546.36 740.2 3544.79 740.2 3543.25 740.689 3541.96 741.599 3540.68 742.508 3539.7 743.795 3539.18 745.28L3532.91 764.555C3531 770.374 3527.77 775.672 3523.47 780.035 3519.17 784.399 3513.92 787.709 3508.13 789.708L3488.83 795.972C3487.35 796.496 3486.06 797.468 3485.15 798.754 3484.24 800.04 3483.75 801.577 3483.75 803.152 3483.75 804.727 3484.24 806.264 3485.15 807.55 3486.06 808.836 3487.35 809.808 3488.83 810.332L3508.13 816.596C3514 818.553 3519.33 821.856 3523.7 826.24 3528.08 830.624 3531.36 835.968 3533.3 841.844L3539.56 861.12C3540.09 862.606 3541.06 863.892 3542.35 864.801 3543.64 865.711 3545.17 866.2 3546.75 866.2 3548.33 866.2 3549.86 865.711 3551.15 864.801 3552.44 863.892 3553.41 862.606 3553.94 861.12L3560.2 841.844C3562.15 835.985 3565.45 830.661 3569.82 826.294 3574.18 821.928 3579.51 818.64 3585.38 816.692L3604.67 810.428C3606.15 809.904 3607.44 808.932 3608.35 807.646 3609.26 806.36 3609.75 804.824 3609.75 803.248 3609.75 801.673 3609.26 800.137 3608.35 798.851 3607.44 797.565 3606.15 796.593 3604.67 796.069L3604.28 795.972Z" fill="#FFFFFF"/></g></g></g><g><g><g><path d="M362.158 7.36675 371.249 35.3146C374.076 43.8112 378.847 51.5321 385.181 57.8634 391.518 64.1948 399.244 68.9622 407.747 71.7865L435.716 80.8695 436.277 81.0094C438.433 81.7692 440.299 83.1786 441.62 85.0432 442.94 86.9077 443.648 89.1356 443.648 91.4199 443.648 93.7042 442.94 95.9321 441.62 97.7967 440.299 99.6612 438.433 101.071 436.277 101.83L408.308 110.913C399.805 113.738 392.077 118.505 385.742 124.837 379.405 131.168 374.634 138.889 371.807 147.386L362.717 175.333C361.957 177.488 360.545 179.353 358.682 180.672 356.816 181.992 354.584 182.7 352.298 182.7 350.014 182.7 347.782 181.992 345.916 180.672 345.734 180.542 345.553 180.407 345.379 180.266 343.779 178.982 342.565 177.275 341.881 175.333L332.791 147.386C332.302 145.903 331.754 144.443 331.149 143.01 328.278 136.209 324.117 130.008 318.882 124.758 317.887 123.759 316.856 122.799 315.794 121.88 310.097 116.945 303.47 113.166 296.29 110.774L268.321 101.691C266.165 100.931 264.299 99.5214 262.978 97.6568 261.658 95.7922 260.949 93.5643 260.949 91.2803 260.949 88.996 261.658 86.7681 262.978 84.9035 264.299 83.0389 266.165 81.6295 268.321 80.8695L296.29 71.7865C304.691 68.8886 312.305 64.0883 318.54 57.7611 324.775 51.4339 329.46 43.7517 332.232 35.3146L341.32 7.36675C342.082 5.21269 343.492 3.34738 345.358 2.02796 347.224 0.708544 349.453 0 351.739 0 354.026 0 356.254 0.708544 358.121 2.02796 359.987 3.34738 361.399 5.21269 362.158 7.36675Z" fill="#FFFFFF" transform="matrix(1 0 0 1.00192 3081 553)"/></g></g></g></g></svg>
