<svg width="324" height="320" xmlns="http://www.w3.org/2000/svg" xmlns:xlink="http://www.w3.org/1999/xlink" xml:space="preserve" overflow="hidden"><defs><clipPath id="clip0"><rect x="50" y="200" width="324" height="320"/></clipPath></defs><g clip-path="url(#clip0)" transform="translate(-50 -200)"><path d="M367.44 153.84C367.44 206.16 401.04 242.64 447.6 242.64 494.16 242.64 527.76 206.16 527.76 153.84 527.76 101.52 494.16 65.04 447.6 65.04 401.04 65.04 367.44 101.52 367.44 153.84ZM497.04 153.84C497.04 191.28 476.64 215.52 447.6 215.52 418.56 215.52 398.16 191.28 398.16 153.84 398.16 116.4 418.56 92.16 447.6 92.16 476.64 92.16 497.04 116.4 497.04 153.84Z" transform="matrix(1.00079 0 0 1 50 200)"/><path d="M614.27 242.64C649.55 242.64 669.71 212.88 669.71 177.12 669.71 141.36 649.55 111.6 614.27 111.6 597.95 111.6 585.95 118.08 578.03 127.44L578.03 114 549.23 114 549.23 283.2 578.03 283.2 578.03 226.8C585.95 236.16 597.95 242.64 614.27 242.64ZM577.31 173.52C577.31 149.76 590.75 136.8 608.51 136.8 629.39 136.8 640.67 153.12 640.67 177.12 640.67 201.12 629.39 217.44 608.51 217.44 590.75 217.44 577.31 204.24 577.31 180.96Z" transform="matrix(1.00079 0 0 1 50 200)"/><path d="M747.65 242.64C772.85 242.64 792.77 229.44 801.65 207.36L776.93 198C773.09 210.96 761.81 218.16 747.65 218.16 729.17 218.16 716.21 204.96 714.05 183.36L802.37 183.36 802.37 173.76C802.37 139.2 782.93 111.6 746.45 111.6 709.97 111.6 686.45 140.16 686.45 177.12 686.45 216 711.65 242.64 747.65 242.64ZM746.21 135.84C764.45 135.84 773.09 147.84 773.33 161.76L715.49 161.76C719.81 144.72 731.33 135.84 746.21 135.84Z" transform="matrix(1.00079 0 0 1 50 200)"/><path d="M823.98 240 852.78 240 852.78 166.08C852.78 148.08 865.98 138.48 878.94 138.48 894.78 138.48 901.02 149.76 901.02 165.36L901.02 240 929.82 240 929.82 156.96C929.82 129.84 913.98 111.6 887.58 111.6 871.26 111.6 859.98 119.04 852.78 127.44L852.78 114 823.98 114Z" transform="matrix(1.00079 0 0 1 50 200)"/><path d="M1014.17 67.68 948.89 240 979.37 240 994.01 200.64 1068.41 200.64 1083.29 240 1114.25 240 1048.97 67.68ZM1030.97 101.76 1058.33 173.76 1004.09 173.76Z" transform="matrix(1.00079 0 0 1 50 200)"/><path d="M1163.69 68.18 1132.97 68.18 1132.97 240.5 1163.69 240.5Z" transform="matrix(1.00079 0 0 1 50 200)"/><path d="M297.06 130.97C304.32 109.18 301.82 85.31 290.21 65.49 272.75 35.09 237.65 19.45 203.37 26.81 188.12 9.63 166.21-0.14 143.24-3.55271e-15 108.2-0.08 77.11 22.48 66.33 55.82 43.82 60.43 24.39 74.52 13.02 94.49-4.57 124.81-0.56 163.03 22.94 189.03 15.68 210.82 18.18 234.69 29.79 254.51 47.25 284.91 82.35 300.55 116.63 293.19 131.87 310.37 153.79 320.14 176.76 319.99 211.82 320.08 242.92 297.5 253.7 264.13 276.21 259.52 295.64 245.43 307.01 225.46 324.58 195.14 320.56 156.95 297.07 130.95ZM176.78 299.08C162.75 299.1 149.16 294.19 138.39 285.2 138.88 284.94 139.73 284.47 140.28 284.13L204 247.33C207.26 245.48 209.26 242.01 209.24 238.26L209.24 148.43 236.17 163.98C236.46 164.12 236.65 164.4 236.69 164.72L236.69 239.11C236.65 272.19 209.86 299.01 176.78 299.08ZM47.94 244.05C40.91 231.91 38.38 217.68 40.79 203.87 41.26 204.15 42.09 204.66 42.68 205L106.4 241.8C109.63 243.69 113.63 243.69 116.87 241.8L194.66 196.88 194.66 227.98C194.68 228.3 194.53 228.61 194.28 228.81L129.87 266C101.18 282.52 64.54 272.7 47.95 244.05ZM31.17 104.96C38.17 92.8 49.22 83.5 62.38 78.67 62.38 79.22 62.35 80.19 62.35 80.87L62.35 154.48C62.33 158.22 64.33 161.69 67.58 163.54L145.37 208.45 118.44 224C118.17 224.18 117.83 224.21 117.53 224.08L53.11 186.86C24.48 170.28 14.66 133.65 31.16 104.97ZM252.43 156.45 174.64 111.53 201.57 95.99C201.84 95.81 202.18 95.78 202.48 95.91L266.9 133.1C295.58 149.67 305.41 186.36 288.84 215.04 281.83 227.18 270.79 236.48 257.64 241.32L257.64 165.51C257.67 161.77 255.68 158.31 252.44 156.45ZM279.23 116.11C278.76 115.82 277.93 115.32 277.34 114.98L213.62 78.18C210.39 76.29 206.39 76.29 203.15 78.18L125.36 123.1 125.36 92C125.34 91.68 125.49 91.37 125.74 91.17L190.15 54.01C218.84 37.46 255.52 47.31 272.06 76.01 279.05 88.13 281.58 102.32 279.21 116.11ZM110.72 171.54 83.78 155.99C83.49 155.85 83.3 155.57 83.26 155.25L83.26 80.86C83.28 47.74 110.15 20.9 143.27 20.92 157.28 20.92 170.84 25.84 181.61 34.8 181.12 35.06 180.28 35.53 179.72 35.87L116 72.67C112.74 74.52 110.74 77.98 110.76 81.73L110.72 171.52ZM125.35 140 160 119.99 194.65 139.99 194.65 180 160 200 125.35 180Z" transform="matrix(1.00079 0 0 1 50 200)"/></g></svg>